<svg version="1.0" id="Layer_1"
    xmlns="http://www.w3.org/2000/svg"
    xmlns:xlink="http://www.w3.org/1999/xlink" x="0px" y="0px" viewBox="0 0 150 81" enable-background="new 0 0 150 81" xml:space="preserve">
    <path id="full" fill="#2B233D" d="M82.4,40.3c0-0.8-0.6-1.4-1.4-1.4c-5,0-8.1,1.8-9.9,3.9V23.3c0-0.8-0.6-1.4-1.4-1.4 c-0.8,0-1.4,0.6-1.4,1.4v36.8c0,0.8,0.6,1.4,1.4,1.4c0.8,0,1.4-0.6,1.4-1.4c0,0,0-4.3,0-9.9c0-8.5,9.9-8.5,9.9-8.5 C81.8,41.8,82.4,41.1,82.4,40.3z M64,38.9c-1.3,0-2.4,0.1-3.5,0.3c-6.3-0.2-11.4-5.4-11.4-11.7c0-6.4,5.1-11.6,11.5-11.7l1.6,0 l-0.4-1.6c-0.2-0.7-0.2-1.4-0.2-2.1c0-5.2,4.2-9.5,9.5-9.5c5.2,0,9.5,4.2,9.5,9.5c0,0.5,0,1-0.1,1.5h0c0,0.7,0.6,1.2,1.3,1.2 c0.7,0,1.2-0.5,1.3-1.1c0,0,0,0,0,0c0.1-0.5,0.1-1.1,0.1-1.6c0-3.3-1.3-6.3-3.5-8.5C77.5,1.4,74.4,0,71.1,0C64.4,0,59,5.4,59,12.1 c0,0.4,0,0.8,0.1,1.2c-7.1,0.9-12.5,6.9-12.5,14.2c0,6.2,4,11.6,9.5,13.5c-4.8,3.3-4.8,9.2-4.8,9.2v9.9c0,0.8,0.6,1.4,1.4,1.4 s1.4-0.6,1.4-1.4c0,0,0-4.3,0-9.9c0-8.5,9.9-8.5,9.9-8.5c0.8,0,1.4-0.6,1.4-1.4C65.4,39.6,64.8,38.9,64,38.9z M37.9,38.9 c-11.3,0-11.3,11.3-11.3,11.3s0,11.3,11.3,11.3c3.2,0,5.5-0.9,7.1-2.2l1.7,1.8c0,0,0,0,0.1,0.1l0,0l0,0c0.2,0.2,0.6,0.4,0.9,0.4 c0.8,0,1.4-0.6,1.4-1.4c0-0.4-0.2-0.7-0.4-1l0,0L47,57.3h-4.1c-2.3,1.5-5,1.5-5,1.5s-8.5,0-8.5-8.5c0-8.5,8.5-8.5,8.5-8.5 s8.5,0,8.5,8.5v4.3c0,0.8,0.6,1.4,1.4,1.4c0.8,0,1.4-0.6,1.4-1.4v-4.3C49.2,50.3,49.2,38.9,37.9,38.9z M13.2,38.9 C1.9,38.9,1.9,50.3,1.9,50.3v13.2l-1.6,4C0.1,67.7,0,68,0,68.3c0,0.8,0.6,1.4,1.4,1.4c0.5,0,1-0.3,1.2-0.7l0,0l0,0 c0.1-0.1,0.1-0.2,0.1-0.3l1.8-4.4c0.1-0.2,0.1-0.4,0.1-0.6V50.3c0-8.5,8.5-8.5,8.5-8.5s8.5,0,8.5,8.5c0,8.5-8.5,8.5-8.5,8.5H8v0 c-0.8,0-1.4,0.6-1.4,1.4c0,0.8,0.6,1.4,1.4,1.4c0,0,0,0,0,0v0h5.2c11.3,0,11.3-11.3,11.3-11.3S24.6,38.9,13.2,38.9z M138.7,38.9 c-3.2,0-5.5,0.9-7.1,2.2l-1.8-1.8c0,0,0,0-0.1-0.1l0,0l0,0c-0.2-0.2-0.6-0.4-0.9-0.4c-0.8,0-1.4,0.6-1.4,1.4c0,0.4,0.2,0.7,0.4,1h0 l1.8,1.9h4.1c2.3-1.5,5-1.5,5-1.5s8.5,0,8.5,8.5v9.9c0,0.8,0.6,1.4,1.4,1.4c0.8,0,1.4-0.6,1.4-1.4v-9.9 C150,50.3,150,38.9,138.7,38.9z M123.1,38.9c-0.8,0-1.4,0.6-1.4,1.4v14.2c0,0.8,0.6,1.4,1.4,1.4s1.4-0.6,1.4-1.4V40.3 C124.5,39.6,123.9,38.9,123.1,38.9z M128.7,44.6c-0.8,0-1.4,0.6-1.4,1.4v14.2c0,0.8,0.6,1.4,1.4,1.4c0.8,0,1.4-0.6,1.4-1.4V46 C130.2,45.2,129.5,44.6,128.7,44.6z M124.1,59.2l-1.8-1.9h-4.1c-2.3,1.5-5,1.5-5,1.5s-8.5,0-8.5-8.5v-9.9c0-0.8-0.6-1.4-1.4-1.4 c-0.8,0-1.4,0.6-1.4,1.4v9.9c0,0,0,11.3,11.3,11.3c3.2,0,5.5-0.9,7.1-2.2l1.8,1.8c0,0,0,0,0.1,0.1l0,0l0,0c0.2,0.2,0.6,0.4,0.9,0.4 c0.8,0,1.4-0.6,1.4-1.4C124.5,59.8,124.3,59.5,124.1,59.2L124.1,59.2L124.1,59.2L124.1,59.2z M98,38.9c-12.8,0-12.8,11.3-12.8,11.3 V57l-8.7-8.9c-0.1-0.1-0.2-0.3-0.4-0.4l0,0c-0.2-0.2-0.5-0.3-0.8-0.3c-0.8,0-1.4,0.6-1.4,1.4c0,0.4,0.1,0.7,0.4,0.9l0,0l0,0 c0,0,0,0,0.1,0.1l11.1,11.1c0.1,0.2,0.3,0.3,0.4,0.4l0,0l0,0c0.2,0.1,0.5,0.2,0.7,0.2c0.8,0,1.4-0.6,1.4-1.4c0,0,0-4.3,0-9.9 c0-8.5,9.9-8.5,9.9-8.5c0.8,0,1.4-0.6,1.4-1.4C99.4,39.6,98.8,38.9,98,38.9z"></path>
</svg>