<svg version="1.0" id="Layer_1"
    xmlns="http://www.w3.org/2000/svg"
    xmlns:xlink="http://www.w3.org/1999/xlink" x="0px" y="0px" viewBox="0 0 150 81" enable-background="new 0 0 150 81" xml:space="preserve">
    <g id="mini">
        <path id="bg" fill="#2B233D" d="M25,30.8c-13.8,0-25,11.2-25,25s11.2,25,25,25s25-11.2,25-25S38.8,30.8,25,30.8L25,30.8z"></path>
        <path id="ring" fill="#FFFFFF" d="M25,32.8c12.7,0,23,10.3,23,23c0,12.7-10.3,23-23,23S2,68.5,2,55.8C2,43.2,12.3,32.8,25,32.8"></path>
        <path id="logo" fill="#2B233D" d="M25,51.1c-0.6,0-1.2,0.5-1.2,1.2v17.3c0,0.7,0.5,1.2,1.2,1.2c0.6,0,1.2-0.5,1.2-1.2V65 c0-1.4,0.7-2.4,2-3c1-0.5,2.1-0.5,2.1-0.5c0.6,0,1.2-0.5,1.2-1.2c0-0.7-0.5-1.2-1.2-1.2c-1.6,0-3,0.4-4.1,1.2v-8 C26.2,51.7,25.7,51.1,25,51.1 M25.7,40.9c-3.4,0-6.1,2.8-6.1,6.2l0,0.1c-3.4,0.7-5.8,3.6-5.8,7.1c0,2.1,0.9,4.1,2.4,5.4 c0.4,0.3,2.3,1.9,4.9,1.9h0.1l0.1,0l0.2,0l0.1,0c0.5-0.1,0.9-0.6,0.9-1.1c0-0.7-0.5-1.2-1.2-1.2h-0.5c-2.7-0.1-4.7-2.3-4.8-5 c0-2.7,2.2-4.9,4.8-5l0.7,0c0.2,0,0.3-0.1,0.4-0.2c0.1-0.1,0.1-0.3,0.1-0.4l-0.2-0.7c-0.1-0.3-0.1-0.6-0.1-0.9 c0-2.2,1.7-3.9,3.9-3.9c2.1,0,3.9,1.8,3.9,3.9c0,0.2,0,0.4-0.1,0.6c0,0.1,0,0.2,0,0.3c0.1,0.5,0.6,0.9,1.1,0.9c0.5,0,1-0.4,1.1-0.9 l0-0.1c0-0.3,0.1-0.6,0.1-0.8c0-1.7-0.6-3.2-1.8-4.4C28.8,41.5,27.3,40.9,25.7,40.9"></path>
    </g>
</svg>